<mxfile host="Electron" agent="Mozilla/5.0 (Windows NT 10.0; Win64; x64) AppleWebKit/537.36 (KHTML, like Gecko) draw.io/27.0.9 Chrome/134.0.6998.205 Electron/35.4.0 Safari/537.36" version="27.0.9">
  <diagram name="Page-1" id="kABnbkt1Tot2VYo7B2q3">
    <mxGraphModel dx="1098" dy="760" grid="1" gridSize="10" guides="1" tooltips="1" connect="1" arrows="1" fold="1" page="1" pageScale="1" pageWidth="827" pageHeight="1169" math="0" shadow="0">
      <root>
        <mxCell id="0" />
        <mxCell id="1" parent="0" />
        <mxCell id="IyjS6P3y_rwdA-5-YSp0-23" value="" style="group" vertex="1" connectable="0" parent="1">
          <mxGeometry x="374" y="585" width="80" height="80" as="geometry" />
        </mxCell>
        <mxCell id="IyjS6P3y_rwdA-5-YSp0-21" value="" style="ellipse;whiteSpace=wrap;html=1;aspect=fixed;" vertex="1" parent="IyjS6P3y_rwdA-5-YSp0-23">
          <mxGeometry width="80" height="80" as="geometry" />
        </mxCell>
        <mxCell id="IyjS6P3y_rwdA-5-YSp0-20" value="" style="ellipse;whiteSpace=wrap;html=1;aspect=fixed;fillColor=#000000;" vertex="1" parent="IyjS6P3y_rwdA-5-YSp0-23">
          <mxGeometry x="15" y="15" width="50" height="50" as="geometry" />
        </mxCell>
        <mxCell id="IyjS6P3y_rwdA-5-YSp0-24" value="&lt;font style=&quot;color: rgb(255, 255, 255);&quot;&gt;End&lt;/font&gt;" style="text;html=1;align=center;verticalAlign=middle;resizable=0;points=[];autosize=1;strokeColor=none;fillColor=none;" vertex="1" parent="IyjS6P3y_rwdA-5-YSp0-23">
          <mxGeometry x="20" y="25" width="40" height="30" as="geometry" />
        </mxCell>
        <mxCell id="IyjS6P3y_rwdA-5-YSp0-39" style="edgeStyle=orthogonalEdgeStyle;rounded=0;orthogonalLoop=1;jettySize=auto;html=1;exitX=0.5;exitY=1;exitDx=0;exitDy=0;entryX=0.5;entryY=0;entryDx=0;entryDy=0;" edge="1" parent="1" source="IyjS6P3y_rwdA-5-YSp0-1" target="IyjS6P3y_rwdA-5-YSp0-27">
          <mxGeometry relative="1" as="geometry" />
        </mxCell>
        <mxCell id="IyjS6P3y_rwdA-5-YSp0-1" value="ffff" style="ellipse;whiteSpace=wrap;html=1;aspect=fixed;fillColor=#000000;" vertex="1" parent="1">
          <mxGeometry x="385" y="100" width="50" height="50" as="geometry" />
        </mxCell>
        <mxCell id="IyjS6P3y_rwdA-5-YSp0-16" style="edgeStyle=orthogonalEdgeStyle;rounded=0;orthogonalLoop=1;jettySize=auto;html=1;exitX=0.5;exitY=1;exitDx=0;exitDy=0;entryX=0.5;entryY=0;entryDx=0;entryDy=0;" edge="1" parent="1" source="IyjS6P3y_rwdA-5-YSp0-5" target="IyjS6P3y_rwdA-5-YSp0-15">
          <mxGeometry relative="1" as="geometry">
            <Array as="points">
              <mxPoint x="410" y="400" />
              <mxPoint x="410" y="400" />
            </Array>
          </mxGeometry>
        </mxCell>
        <mxCell id="IyjS6P3y_rwdA-5-YSp0-40" value="yes" style="edgeLabel;html=1;align=center;verticalAlign=middle;resizable=0;points=[];" vertex="1" connectable="0" parent="IyjS6P3y_rwdA-5-YSp0-16">
          <mxGeometry x="-0.5686" y="1" relative="1" as="geometry">
            <mxPoint y="-1" as="offset" />
          </mxGeometry>
        </mxCell>
        <mxCell id="IyjS6P3y_rwdA-5-YSp0-28" style="edgeStyle=orthogonalEdgeStyle;rounded=0;orthogonalLoop=1;jettySize=auto;html=1;exitX=0;exitY=0.5;exitDx=0;exitDy=0;entryX=0;entryY=0.5;entryDx=0;entryDy=0;" edge="1" parent="1" source="IyjS6P3y_rwdA-5-YSp0-5" target="IyjS6P3y_rwdA-5-YSp0-27">
          <mxGeometry relative="1" as="geometry">
            <Array as="points">
              <mxPoint x="180" y="350" />
              <mxPoint x="180" y="230" />
            </Array>
          </mxGeometry>
        </mxCell>
        <mxCell id="IyjS6P3y_rwdA-5-YSp0-29" value="keep asking" style="edgeLabel;html=1;align=center;verticalAlign=middle;resizable=0;points=[];" vertex="1" connectable="0" parent="IyjS6P3y_rwdA-5-YSp0-28">
          <mxGeometry x="0.5492" y="-1" relative="1" as="geometry">
            <mxPoint as="offset" />
          </mxGeometry>
        </mxCell>
        <mxCell id="IyjS6P3y_rwdA-5-YSp0-30" value="no" style="edgeLabel;html=1;align=center;verticalAlign=middle;resizable=0;points=[];" vertex="1" connectable="0" parent="IyjS6P3y_rwdA-5-YSp0-28">
          <mxGeometry x="-0.302" y="1" relative="1" as="geometry">
            <mxPoint as="offset" />
          </mxGeometry>
        </mxCell>
        <mxCell id="IyjS6P3y_rwdA-5-YSp0-5" value="Is the colorInput valid?" style="rhombus;whiteSpace=wrap;html=1;" vertex="1" parent="1">
          <mxGeometry x="370" y="310" width="80" height="80" as="geometry" />
        </mxCell>
        <mxCell id="IyjS6P3y_rwdA-5-YSp0-42" style="edgeStyle=orthogonalEdgeStyle;rounded=0;orthogonalLoop=1;jettySize=auto;html=1;exitX=0.5;exitY=1;exitDx=0;exitDy=0;entryX=0.5;entryY=0;entryDx=0;entryDy=0;" edge="1" parent="1" source="IyjS6P3y_rwdA-5-YSp0-15" target="IyjS6P3y_rwdA-5-YSp0-41">
          <mxGeometry relative="1" as="geometry" />
        </mxCell>
        <mxCell id="IyjS6P3y_rwdA-5-YSp0-15" value="Extract RGB values" style="rounded=0;whiteSpace=wrap;html=1;" vertex="1" parent="1">
          <mxGeometry x="350" y="420" width="120" height="60" as="geometry" />
        </mxCell>
        <mxCell id="IyjS6P3y_rwdA-5-YSp0-22" value="&lt;font style=&quot;color: rgb(255, 255, 255);&quot;&gt;Start&lt;/font&gt;" style="text;html=1;align=center;verticalAlign=middle;resizable=0;points=[];autosize=1;strokeColor=none;fillColor=none;" vertex="1" parent="1">
          <mxGeometry x="385" y="110" width="50" height="30" as="geometry" />
        </mxCell>
        <mxCell id="IyjS6P3y_rwdA-5-YSp0-31" style="edgeStyle=orthogonalEdgeStyle;rounded=0;orthogonalLoop=1;jettySize=auto;html=1;exitX=0.5;exitY=1;exitDx=0;exitDy=0;entryX=0.5;entryY=0;entryDx=0;entryDy=0;" edge="1" parent="1" source="IyjS6P3y_rwdA-5-YSp0-27" target="IyjS6P3y_rwdA-5-YSp0-5">
          <mxGeometry relative="1" as="geometry" />
        </mxCell>
        <mxCell id="IyjS6P3y_rwdA-5-YSp0-27" value="Ask user to enter a color code (Format: #FF6575) and read it" style="shape=parallelogram;perimeter=parallelogramPerimeter;whiteSpace=wrap;html=1;fixedSize=1;" vertex="1" parent="1">
          <mxGeometry x="305" y="200" width="210" height="60" as="geometry" />
        </mxCell>
        <mxCell id="IyjS6P3y_rwdA-5-YSp0-43" style="edgeStyle=orthogonalEdgeStyle;rounded=0;orthogonalLoop=1;jettySize=auto;html=1;exitX=0.5;exitY=1;exitDx=0;exitDy=0;entryX=0.5;entryY=0;entryDx=0;entryDy=0;" edge="1" parent="1" source="IyjS6P3y_rwdA-5-YSp0-41" target="IyjS6P3y_rwdA-5-YSp0-21">
          <mxGeometry relative="1" as="geometry" />
        </mxCell>
        <mxCell id="IyjS6P3y_rwdA-5-YSp0-41" value="Show results" style="shape=parallelogram;perimeter=parallelogramPerimeter;whiteSpace=wrap;html=1;fixedSize=1;" vertex="1" parent="1">
          <mxGeometry x="350" y="500" width="120" height="60" as="geometry" />
        </mxCell>
      </root>
    </mxGraphModel>
  </diagram>
</mxfile>
